<?xml version="1.0" encoding="utf-8"?>
<!-- Generator: Adobe Adobe Illustrator 24.2.0, SVG Export Plug-In . SVG Version: 6.00 Build 0)  -->
<svg version="1.1" id="katman_1" xmlns="http://www.w3.org/2000/svg" xmlns:xlink="http://www.w3.org/1999/xlink" x="0px" y="0px"
	 width="640.4px" height="107px" viewBox="0 0 640.4 107" style="enable-background:new 0 0 640.4 107;" xml:space="preserve">
<style type="text/css">
	.st0{fill-rule:evenodd;clip-rule:evenodd;fill:#FFFFFF;}
</style>
<g>
	<path class="st0" d="M53.9,107V86.3c22.2,0,39.3-21.8,30.9-44.9c-3.1-8.6-10-15.4-18.7-18.5c-23.3-8.4-45.3,8.6-45.3,30.6l0,0H0
		C0,18.4,34.1-8.8,71.2,2.6c16.2,5,29,17.8,34.1,33.8C116.8,73.1,89.3,107,53.9,107"/>
	<path class="st0" d="M54,86.3H33.2V65.6l0,0H54l0,0V86.3 M33.1,102.2h-16l0,0V86.3h16V102.2L33.1,102.2 M17.1,86.3H3.7l0,0V73l0,0
		h13.4l0,0V86.3 M161.1,34.9h6.1c6.8,0,12.5,1.3,16.7,4c4.7,2.8,7.1,8.2,7.1,16c0,8-2.4,13.7-7.2,16.7l0,0c-4.1,2.7-9.7,4-16.6,4
		H161C161.1,75.6,161.1,34.9,161.1,34.9z M192.1,30.9c-6.2-4.3-13.9-6.4-22.9-6.4h-19.6v61.6h19.6c9,0,16.7-2.3,22.9-6.8
		c3.4-2.4,6-5.7,7.9-9.9c1.8-4.2,2.8-9,2.8-14.5c0-5.4-0.9-10.3-2.8-14.4C198.2,36.4,195.5,33.2,192.1,30.9L192.1,30.9z M216.4,23.7
		c-1.9,0-3.5,0.7-4.8,2c-1.3,1.2-2,2.8-2,4.7c0,1.9,0.7,3.5,2,4.8s2.9,2,4.8,2s3.5-0.7,4.8-2s2-2.9,2-4.8s-0.7-3.4-2-4.7
		C219.9,24.4,218.3,23.7,216.4,23.7 M210.8,86h11V42.6h-11V86z M258.9,71.9c-1.9,2.2-4.4,3.2-7.5,3.2c-3.2,0-5.6-1.1-7.5-3.2
		c-1.9-2.2-2.8-5-2.8-8.5c0-3.5,1-6.4,2.8-8.6c1.9-2.1,4.4-3.2,7.5-3.2c3.2,0,5.6,1.1,7.5,3.2c1.9,2.2,2.9,5.1,2.9,8.6
		C261.8,66.9,260.8,69.8,258.9,71.9z M261.8,46.3c-3.3-2.9-7-4.6-11-4.6c-6.1,0-11.1,2.1-15,6.2s-5.9,9.3-5.9,15.6
		c0,6.1,2,11.3,5.8,15.5c3.9,4.1,9,6.1,15.1,6.1c4.2,0,7.9-1.2,10.9-3.5v1c0,3.6-1,6.4-2.9,8.3s-4.6,2.9-7.9,2.9
		c-5.1,0-8.3-2-12.1-7.2l-7.5,7.1l0.2,0.3c1.6,2.3,4.1,4.5,7.4,6.6s7.4,3.1,12.2,3.1c6.5,0,11.8-2,15.7-5.9c3.9-4,5.9-9.3,5.9-15.7
		V42.7h-10.8L261.8,46.3L261.8,46.3z M282,86h11V42.6h-11V86z M287.6,23.7c-1.9,0-3.5,0.7-4.8,2c-1.3,1.2-2,2.8-2,4.7
		c0,1.9,0.7,3.5,2,4.8s2.9,2,4.8,2s3.5-0.7,4.8-2s2-2.9,2-4.8s-0.7-3.4-2-4.7C291.1,24.4,289.5,23.7,287.6,23.7 M317.1,31h-10.8
		v11.7H300v9.9h6.3v18c0,5.6,1.1,9.7,3.4,12c2.2,2.3,6.2,3.5,11.9,3.5c1.8,0,3.6-0.1,5.3-0.2h0.5V76l-3.8,0.2
		c-2.6,0-4.4-0.5-5.2-1.4c-0.8-0.9-1.3-2.8-1.3-5.7V52.6h10.2v-9.9h-10.2V31 M379,86h11V24.4h-11V86z M501.1,70.5
		c-2,2.2-4,4.1-5.5,5.1l0,0c-1.5,1-3.4,1.5-5.7,1.5c-3.2,0-5.8-1.2-8-3.6c-2.1-2.4-3.2-5.5-3.2-9.2c0-3.7,1.1-6.8,3.1-9.1
		c2.1-2.4,4.7-3.6,7.9-3.6c3.5,0,7.3,2.2,10.5,5.9l7.3-6.9c-4.7-6.1-10.8-9-18-9c-6,0-11.3,2.2-15.6,6.5s-6.4,9.7-6.4,16.2
		s2.2,11.9,6.4,16.2c4.3,4.3,9.5,6.5,15.6,6.5c8,0,14.4-3.4,18.7-9.7L501.1,70.5 M522.2,59c0.5-2.1,1.5-3.8,2.9-5.1
		c1.5-1.5,3.4-2.2,5.8-2.2c2.7,0,4.7,0.8,6.1,2.2c1.3,1.4,2,3.1,2.2,5.1H522.2L522.2,59z M546.3,48.7c-1.6-2.2-3.7-3.9-6.3-5.2
		c-2.6-1.3-5.7-1.9-9.1-1.9c-6.1,0-11.2,2.2-14.9,6.7c-3.7,4.4-5.5,9.9-5.5,16.3c0,6.6,2,12,6.1,16.2c4,4.1,9.3,6.2,15.9,6.2
		c7.4,0,13.5-3,18.1-8.8l0.2-0.3l-7.2-6.8c-0.7,0.8-1.6,1.7-2.5,2.5c-1.1,1-2.1,1.8-3.2,2.3c-1.6,0.8-3.5,1.2-5.6,1.2
		c-3,0-5.6-0.9-7.5-2.6c-1.8-1.6-2.9-3.9-3.1-6.6h29.1l0.1-4c0-2.8-0.4-5.5-1.2-8.1C549,53.3,547.8,50.9,546.3,48.7L546.3,48.7z
		 M569,69.5c1.2-0.9,3-1.3,5.2-1.3c2.6,0,5.5,0.5,8.4,1.6v4.3c-2.4,2.2-5.6,3.3-9.5,3.3c-1.9,0-3.4-0.4-4.4-1.2
		c-1-0.8-1.5-1.8-1.5-3.2C567.2,71.4,567.8,70.3,569,69.5L569,69.5z M588.5,45.9L588.5,45.9c-3.3-2.8-7.9-4.3-13.7-4.3
		c-3.7,0-7.1,0.8-10.2,2.4c-2.9,1.4-5.7,3.8-7.5,6.9l0.1,0.1l7,6.7c2.9-4.6,6.1-6.2,10.4-6.2c2.3,0,4.2,0.6,5.7,1.8
		c1.5,1.2,2.2,2.7,2.2,4.7v2.1c-2.7-0.8-5.4-1.2-8.1-1.2c-5.5,0-9.9,1.3-13.2,3.8c-3.4,2.6-5.1,6.2-5.1,10.8c0,4.1,1.4,7.4,4.3,9.8
		c2.9,2.4,6.4,3.6,10.6,3.6c4.2,0,8.1-1.7,11.7-4.5V86h10.8V58.1C593.6,52.9,591.9,48.8,588.5,45.9L588.5,45.9z M635.9,46.8
		c-3.1-3.4-7.4-5.1-12.8-5.1c-4.4,0-7.9,1.2-10.6,3.7v-2.7h-10.8v43.4h11V62.2c0-3.3,0.8-5.9,2.3-7.8s3.7-2.8,6.5-2.8
		c2.5,0,4.4,0.8,5.8,2.5c1.4,1.7,2.1,4,2.1,6.8V86h11V60.9C640.5,54.9,639,50.2,635.9,46.8 M345.6,69.5c1.2-0.9,3-1.3,5.2-1.3
		c2.6,0,5.5,0.5,8.4,1.6v4.3c-2.4,2.2-5.6,3.3-9.5,3.3c-1.9,0-3.4-0.4-4.4-1.2c-1-0.8-1.5-1.8-1.5-3.2
		C343.8,71.4,344.4,70.3,345.6,69.5z M365.1,45.9L365.1,45.9c-3.3-2.8-7.9-4.3-13.7-4.3c-3.7,0-7.1,0.8-10.2,2.4
		c-2.9,1.4-5.7,3.8-7.5,6.9l0.1,0.1l7,6.7c2.9-4.6,6.1-6.2,10.4-6.2c2.3,0,4.2,0.6,5.7,1.8c1.5,1.2,2.2,2.7,2.2,4.7v2.1
		c-2.7-0.8-5.4-1.2-8.1-1.2c-5.5,0-9.9,1.3-13.2,3.8c-3.4,2.6-5.1,6.2-5.1,10.8c0,4.1,1.4,7.4,4.3,9.8s6.4,3.6,10.6,3.6
		s8.1-1.7,11.7-4.5V86h10.8V58.1C370.2,52.9,368.5,48.8,365.1,45.9L365.1,45.9z M429.9,34.7c-11.4,0-20.7,9.2-20.7,20.6
		s9.3,20.6,20.7,20.6c11.4,0,20.7-9.2,20.7-20.6S441.3,34.7,429.9,34.7z M429.9,87c-17.6,0-32-14.2-32-31.7s14.4-31.7,32-31.7
		s32,14.2,32,31.7C461.9,72.7,447.5,87,429.9,87z"/>
</g>
</svg>
