<?xml version="1.0" encoding="utf-8"?>
<!-- Generator: Adobe Illustrator 25.0.1, SVG Export Plug-In . SVG Version: 6.00 Build 0)  -->
<svg version="1.0" id="katman_1" xmlns="http://www.w3.org/2000/svg" xmlns:xlink="http://www.w3.org/1999/xlink" x="0px" y="0px"
	 viewBox="0 0 800 600" style="enable-background:new 0 0 800 600;" xml:space="preserve">
<style type="text/css">
	.st0{fill-rule:evenodd;clip-rule:evenodd;fill:#ffffff;}
</style>
<g>
	<path class="st0" d="M133.4,354.7V334c22.2,0,39.3-21.8,30.9-44.9c-3.1-8.6-10-15.4-18.7-18.5c-23.3-8.4-45.3,8.6-45.3,30.6
		c0,0,0,0,0,0H79.5c0-35.1,34.1-62.3,71.2-50.9c16.2,5,29,17.8,34.1,33.8C196.3,320.8,168.8,354.7,133.4,354.7"/>
	<path class="st0" d="M133.5,334h-20.8v-20.7c0,0,0,0,0,0h20.8c0,0,0,0,0,0L133.5,334 M112.6,349.9h-16l0,0V334h16L112.6,349.9
		L112.6,349.9 M96.6,334H83.2c0,0,0,0,0,0v-13.3c0,0,0,0,0,0h13.4c0,0,0,0,0,0V334 M240.6,282.6h6.1c6.8,0,12.5,1.3,16.7,4
		c4.7,2.8,7.1,8.2,7.1,16c0,8-2.4,13.7-7.2,16.7h0c-4.1,2.7-9.7,4-16.6,4h-6.2C240.6,323.3,240.6,282.6,240.6,282.6z M271.6,278.6
		c-6.2-4.3-13.9-6.4-22.9-6.4h-19.6v61.6h19.6c9,0,16.7-2.3,22.9-6.8c3.4-2.4,6-5.7,7.9-9.9c1.8-4.2,2.8-9,2.8-14.5
		c0-5.4-0.9-10.3-2.8-14.4C277.7,284.1,275,280.9,271.6,278.6L271.6,278.6z M295.9,271.4c-1.9,0-3.5,0.7-4.8,2c-1.3,1.2-2,2.8-2,4.7
		c0,1.9,0.7,3.5,2,4.8c1.3,1.3,2.9,2,4.8,2c1.9,0,3.5-0.7,4.8-2c1.3-1.3,2-2.9,2-4.8c0-1.9-0.7-3.4-2-4.7
		C299.4,272.1,297.8,271.4,295.9,271.4 M290.3,333.7h11v-43.4h-11V333.7z M338.4,319.6c-1.9,2.2-4.4,3.2-7.5,3.2
		c-3.2,0-5.6-1.1-7.5-3.2c-1.9-2.2-2.8-5-2.8-8.5c0-3.5,1-6.4,2.8-8.6c1.9-2.1,4.4-3.2,7.5-3.2c3.2,0,5.6,1.1,7.5,3.2
		c1.9,2.2,2.9,5.1,2.9,8.6C341.3,314.6,340.3,317.5,338.4,319.6z M341.3,294c-3.3-2.9-7-4.6-11-4.6c-6.1,0-11.1,2.1-15,6.2
		c-3.9,4.1-5.9,9.3-5.9,15.6c0,6.1,2,11.3,5.8,15.5c3.9,4.1,9,6.1,15.1,6.1c4.2,0,7.9-1.2,10.9-3.5v1c0,3.6-1,6.4-2.9,8.3
		c-1.9,1.9-4.6,2.9-7.9,2.9c-5.1,0-8.3-2-12.1-7.2l-7.5,7.1l0.2,0.3c1.6,2.3,4.1,4.5,7.4,6.6c3.3,2.1,7.4,3.1,12.2,3.1
		c6.5,0,11.8-2,15.7-5.9c3.9-4,5.9-9.3,5.9-15.7v-39.4h-10.8L341.3,294L341.3,294z M361.5,333.7h11v-43.4h-11V333.7z M367.1,271.4
		c-1.9,0-3.5,0.7-4.8,2c-1.3,1.2-2,2.8-2,4.7c0,1.9,0.7,3.5,2,4.8c1.3,1.3,2.9,2,4.8,2c1.9,0,3.5-0.7,4.8-2c1.3-1.3,2-2.9,2-4.8
		c0-1.9-0.7-3.4-2-4.7C370.6,272.1,369,271.4,367.1,271.4 M396.6,278.7h-10.8v11.7h-6.3v9.9h6.3v18c0,5.6,1.1,9.7,3.4,12
		c2.2,2.3,6.2,3.5,11.9,3.5c1.8,0,3.6-0.1,5.3-0.2l0.5,0v-9.9l-3.8,0.2c-2.6,0-4.4-0.5-5.2-1.4c-0.8-0.9-1.3-2.8-1.3-5.7v-16.5h10.2
		v-9.9h-10.2V278.7 M458.5,333.7h11v-61.6h-11V333.7z M580.6,318.2c-2,2.2-4,4.1-5.5,5.1v0c-1.5,1-3.4,1.5-5.7,1.5
		c-3.2,0-5.8-1.2-8-3.6c-2.1-2.4-3.2-5.5-3.2-9.2s1.1-6.8,3.1-9.1c2.1-2.4,4.7-3.6,7.9-3.6c3.5,0,7.3,2.2,10.5,5.9l7.3-6.9
		c-4.7-6.1-10.8-9-18-9c-6,0-11.3,2.2-15.6,6.5c-4.3,4.3-6.4,9.7-6.4,16.2s2.2,11.9,6.4,16.2c4.3,4.3,9.5,6.5,15.6,6.5
		c8,0,14.4-3.4,18.7-9.7L580.6,318.2 M601.7,306.7c0.5-2.1,1.5-3.8,2.9-5.1c1.5-1.5,3.4-2.2,5.8-2.2c2.7,0,4.7,0.8,6.1,2.2
		c1.3,1.4,2,3.1,2.2,5.1L601.7,306.7L601.7,306.7z M625.8,296.4c-1.6-2.2-3.7-3.9-6.3-5.2c-2.6-1.3-5.7-1.9-9.1-1.9
		c-6.1,0-11.2,2.2-14.9,6.7c-3.7,4.4-5.5,9.9-5.5,16.3c0,6.6,2,12,6.1,16.2c4,4.1,9.3,6.2,15.9,6.2c7.4,0,13.5-3,18.1-8.8l0.2-0.3
		l-7.2-6.8c-0.7,0.8-1.6,1.7-2.5,2.5c-1.1,1-2.1,1.8-3.2,2.3c-1.6,0.8-3.5,1.2-5.6,1.2c-3,0-5.6-0.9-7.5-2.6
		c-1.8-1.6-2.9-3.9-3.1-6.6h29.1l0.1-4c0-2.8-0.4-5.5-1.2-8.1C628.5,301,627.3,298.6,625.8,296.4L625.8,296.4z M648.5,317.2
		c1.2-0.9,3-1.3,5.2-1.3c2.6,0,5.5,0.5,8.4,1.6v4.3c-2.4,2.2-5.6,3.3-9.5,3.3c-1.9,0-3.4-0.4-4.4-1.2c-1-0.8-1.5-1.8-1.5-3.2
		C646.7,319.1,647.3,318,648.5,317.2L648.5,317.2z M668,293.6L668,293.6c-3.3-2.8-7.9-4.3-13.7-4.3c-3.7,0-7.1,0.8-10.2,2.4
		c-2.9,1.4-5.7,3.8-7.5,6.9l0.1,0.1l7,6.7c2.9-4.6,6.1-6.2,10.4-6.2c2.3,0,4.2,0.6,5.7,1.8c1.5,1.2,2.2,2.7,2.2,4.7v2.1
		c-2.7-0.8-5.4-1.2-8.1-1.2c-5.5,0-9.9,1.3-13.2,3.8c-3.4,2.6-5.1,6.2-5.1,10.8c0,4.1,1.4,7.4,4.3,9.8c2.9,2.4,6.4,3.6,10.6,3.6
		c4.2,0,8.1-1.7,11.7-4.5v3.6h10.8v-27.9C673.1,300.6,671.4,296.5,668,293.6L668,293.6z M715.4,294.5c-3.1-3.4-7.4-5.1-12.8-5.1
		c-4.4,0-7.9,1.2-10.6,3.7v-2.7h-10.8v43.4h11v-23.9c0-3.3,0.8-5.9,2.3-7.8c1.5-1.9,3.7-2.8,6.5-2.8c2.5,0,4.4,0.8,5.8,2.5
		c1.4,1.7,2.1,4,2.1,6.8v25.1h11v-25.1C720,302.6,718.5,297.9,715.4,294.5 M425.1,317.2c1.2-0.9,3-1.3,5.2-1.3
		c2.6,0,5.5,0.5,8.4,1.6v4.3c-2.4,2.2-5.6,3.3-9.5,3.3c-1.9,0-3.4-0.4-4.4-1.2c-1-0.8-1.5-1.8-1.5-3.2
		C423.3,319.1,423.9,318,425.1,317.2z M444.6,293.6L444.6,293.6c-3.3-2.8-7.9-4.3-13.7-4.3c-3.7,0-7.1,0.8-10.2,2.4
		c-2.9,1.4-5.7,3.8-7.5,6.9l0.1,0.1l7,6.7c2.9-4.6,6.1-6.2,10.4-6.2c2.3,0,4.2,0.6,5.7,1.8c1.5,1.2,2.2,2.7,2.2,4.7v2.1
		c-2.7-0.8-5.4-1.2-8.1-1.2c-5.5,0-9.9,1.3-13.2,3.8c-3.4,2.6-5.1,6.2-5.1,10.8c0,4.1,1.4,7.4,4.3,9.8c2.9,2.4,6.4,3.6,10.6,3.6
		c4.2,0,8.1-1.7,11.7-4.5v3.6h10.8v-27.9C449.7,300.6,448,296.5,444.6,293.6L444.6,293.6z M509.4,282.4c-11.4,0-20.7,9.2-20.7,20.6
		s9.3,20.6,20.7,20.6c11.4,0,20.7-9.2,20.7-20.6S520.8,282.4,509.4,282.4z M509.4,334.7c-17.6,0-32-14.2-32-31.7
		c0-17.5,14.4-31.7,32-31.7c17.6,0,32,14.2,32,31.7C541.4,320.4,527,334.7,509.4,334.7z"/>
</g>
</svg>
