<?xml version="1.0" encoding="UTF-8"?>
<svg id="layer" xmlns="http://www.w3.org/2000/svg" version="1.1" viewBox="0 0 652 161.5">
  <!-- Generator: Adobe Illustrator 29.1.0, SVG Export Plug-In . SVG Version: 2.1.0 Build 142)  -->
  <defs>
    <style>
      .st0, .st1 {
        fill: #fff;
      }

      .st1 {
        fill-rule: evenodd;
      }
    </style>
  </defs>
  <path class="st0" d="M399.7,124.4h-.2c.1,0,.1.1.2.1h.1-.1ZM399.7,124.5c-.9,0-3.2.4-5.5.4-7.5,0-10.1-3.5-10.1-8v-30.2h15.3c.9,0,1.5-.8,1.5-1.8v-16.4c0-.9-.8-1.6-1.5-1.6h-15.3v-20.4c0-.8-.5-1.2-1.4-1.2h-20.9c-.9,0-1.3.5-1.3,1.2v21s-10.5,2.6-11.2,2.7c-.8.2-1.2.9-1.2,1.6v13.1c0,1.1.8,1.8,1.6,1.8h10.6v31.7c0,23.6,16.4,26,27.6,26s11.3-1.6,12.3-2.2c.5-.2.9-.9.9-1.5v-14.5c0-.9-.5-1.5-1.4-1.7h0ZM628.5,103.3c0-17.5-7.1-19.8-14.5-19-5.8.3-10.4,3.3-10.4,3.3v34s4.7,3.3,11.7,3.5c9.9.2,13.1-3.4,13.1-21.7h0ZM652,101.8c0,33.1-10.8,42.6-29.4,42.6s-24.3-8-24.3-8c0,0-.3,4.5-.9,5-.3.5-.8.8-1.4.8h-14.2c-1,0-1.8-.8-1.8-1.6l.2-107.2c0-.9.8-1.6,1.6-1.6h20.5c.9,0,1.6.8,1.6,1.6v36.4s7.9-5.1,19.6-5.1v-.2c11.4,0,28.6,4.3,28.6,37.5h0ZM567.8,66.9h-20.3c-1.1,0-1.6.8-1.6,1.8v52.5s-5.3,3.7-12.6,3.7-9.3-3.3-9.3-10.5v-45.8c0-.9-.8-1.6-1.6-1.6h-20.6c-.9,0-1.6.8-1.6,1.6v49.4c0,21.2,11.8,26.5,28.1,26.5s24.3-7.4,24.3-7.4c0,0,.5,3.8.8,4.3.2.4.9.9,1.5.9h12.9c1.1,0,1.6-.8,1.6-1.6l.2-72.1c.1-.9-.8-1.6-1.7-1.6h0ZM339,66.8h-20.5c-.9,0-1.6.9-1.6,2v70.8c0,2,1.3,2.6,2.9,2.6h18.6c2,0,2.4-.9,2.4-2.6v-71.2c-.1-.9-.9-1.6-1.7-1.6h0ZM328.8,34.1c-7.4,0-13.4,5.9-13.4,13.4s5.9,13.4,13.4,13.4,13.1-5.9,13.1-13.4-5.9-13.4-13.1-13.4h0ZM488,31.7h-20.4c-.9,0-1.6.8-1.6,1.6v39.4h-31.9v-39.4c0-.9-.8-1.6-1.6-1.6h-20.5c-.9,0-1.6.8-1.6,1.6v107.2c0,.9.9,1.6,1.6,1.6h20.5c.9,0,1.6-.8,1.6-1.6v-45.8h31.9l-.2,45.8c0,.9.8,1.6,1.6,1.6h20.5c.9,0,1.6-.8,1.6-1.6V33.4c.1-.9-.7-1.6-1.5-1.6h0ZM305.8,79.2v55.4c0,.3-.1,1.1-.5,1.2,0,0-12.1,8.6-31.9,8.6s-52.6-7.5-52.6-57.1,24.9-59.9,49.2-59.8c21.1,0,29.6,4.8,30.9,5.6.3.5.5.9.5,1.3l-3.9,17.3c0,.9-.9,2-2,1.6-3.5-1.1-8.7-3.2-21-3.2s-29.4,4-29.4,36.1,14.5,35.7,24.9,35.7,12.1-1.1,12.1-1.1v-22.2h-14.2c-1.1,0-1.8-.8-1.8-1.6v-17.8c0-.9.8-1.6,1.8-1.6h36.2c1.1-.1,1.8.7,1.8,1.5h0Z"/>
  <path class="st1" d="M82.8,0C37,0,0,37,0,82.8s23.7,67.6,56.6,78.6c4.1.7,5.8-1.7,5.8-3.9s-.1-8.5-.1-15.4c-20.8,3.8-26.2-5.1-27.8-9.7-1-2.4-5-9.8-8.5-11.7-2.9-1.5-7.1-5.4-.1-5.5,6.5-.1,11.2,6,12.7,8.5,7.5,12.5,19.3,9,24.1,6.8.8-5.3,2.9-9,5.3-11.1-18.4-2.1-37.7-9.2-37.7-40.9s3.3-16.5,8.5-22.3c-.9-2.1-3.7-10.5.9-21.9,0,0,7-2.2,22.8,8.5,6.6-1.8,13.7-2.8,20.6-2.8s14,1,20.6,2.8c15.9-10.8,22.7-8.5,22.7-8.5,4.6,11.4,1.6,19.9.9,21.9,5.3,5.8,8.5,13.1,8.5,22.3,0,31.7-19.3,38.8-37.8,40.9,3,2.6,5.6,7.5,5.6,15.3,0,11.1-.1,20-.1,22.7s1.5,4.8,5.6,3.9c33.7-11.4,56.4-43,56.4-78.6S128.5,0,82.8,0h0Z"/>
</svg>