<?xml version="1.0" encoding="UTF-8"?>
<svg id="Layer_2" xmlns="http://www.w3.org/2000/svg" viewBox="0 0 6963 963.3">
  <g id="Layer_1-2" data-name="Layer_1">
    <g>
      <path fill="#ffffff" d="M766.76,603.02v.06s.07-.04.1-.06h-.1Z"/>
      <path fill="#ffffff" d="M958.76,443.22c-39.9-179.4-229.9-278.2-398.6-204.4-121,52.9-191.5,183.5-169.1,312.9,13.2,76.4,51.9,137.8,113.9,184,61.8,46.2,131.8,63.5,208.3,54.5,18.1-2.2,36-6,53.5-12.5v-174.64c-2.14,1.26-3.62,1.96-4.8,2.84-13.6,10-28.8,16.6-44.7,21.8-52.9,17.2-110.2-.5-144.2-44.5-24.4-31.7-31.3-67.4-25.1-106.6,9.1-58,54.7-104.7,111-114,59.7-9.9,118.3,20.6,144.6,73.6,10.4,21.1,14.3,43.5,14.3,66.8.1,71.7-.1,143.3.4,215,.3,34.5,24.9,62.9,59,69.9,33.3,6.9,67.3-10.9,81.5-42.1,5.3-11.6,6.4-23.7,6.4-36.1v-207c0-20.1-2-39.9-6.4-59.5Z"/>
      <path fill="#ffffff" d="M282.46,531.82v-229.9c0-4.3,0-8.7-.2-13-2-41.2-35.8-73.7-77.1-74.1-43.8-.5-79.8,35.2-80.4,79.9,0,.69-.01,1.23-.02,1.65.01,11.18.02,28.99.02,56.35,0,134.2-.3,268.5.3,402.8.1,31.6-25.8,48.9-46.9,49.3-48.4.9-83,41.2-77.6,89.4,4.1,36.2,35.6,66.9,72.1,68.8,46.9,2.4,89.9-10.5,127.2-39,54.3-41.4,82.1-96.9,82.6-165.3.5-75.6.1-151.3.1-226.9h-.1Z"/>
      <path fill="#ffffff" d="M124.74,296.37c-.04-41.68-.13,8.85,0,0h0Z"/>
      <path fill="#ffffff" d="M206.66.02c-46.4-1.1-85.6,39.6-85.4,83.8.2,46.9,36,84.9,81.4,85.1,46.9.3,85.7-38,85.7-84.6v-.1C288.46,36.42,253.36,1.22,206.66.02Z"/>
    </g>
    <g>
      <path fill="#ffffff" d="M1215.41,214.65v577.67h-75.24V214.65h75.24ZM1332.44,792.32h-149.64v-62.03h144.62c51.55,0,94.25-9.17,128.11-27.53,33.86-18.35,59.14-44.58,75.86-78.7s25.08-74.69,25.08-121.74-8.22-86.65-24.66-120.38c-16.44-33.73-41.03-59.71-73.77-77.93-32.75-18.22-73.5-27.33-122.26-27.33h-156.32v-62.03h161.34c60.46,0,112.23,11.5,155.28,34.5,43.05,23.01,76,56.02,98.85,99.06,22.84,43.03,34.27,94.4,34.27,154.11s-11.57,111.98-34.69,155.27c-23.13,43.29-56.78,76.57-100.94,99.83-44.17,23.26-97.88,34.89-161.13,34.89Z"/>
      <path fill="#ffffff" d="M1715.31,792.32V214.65h376.18v62.03h-300.94v193.07h280.88v62.03h-280.88v198.5h305.12v62.03h-380.36Z"/>
      <path fill="#ffffff" d="M2212.7,214.65l184.75,486.17h7.52l184.75-486.17h78.58l-228.21,577.67h-77.74l-229.05-577.67h79.42Z"/>
      <path fill="#ffffff" d="M2725.14,792.32V214.65h376.18v62.03h-300.94v193.07h280.88v62.03h-280.88v198.5h305.12v62.03h-380.36Z"/>
      <path fill="#ffffff" d="M3196.62,792.32V214.65h75.24v515.63h290.08v62.03h-365.31Z"/>
      <path fill="#ffffff" d="M3864.96,800.07c-52.95,0-100.18-12.02-141.69-36.06-41.52-24.04-74.19-58.21-98.01-102.54-23.83-44.33-35.74-96.86-35.74-157.6s11.91-113.72,35.74-158.18c23.82-44.45,56.49-78.7,98.01-102.74,41.52-24.04,88.75-36.06,141.69-36.06s100.45,12.02,141.69,36.06c41.24,24.04,73.7,58.29,97.39,102.74,23.68,44.46,35.53,97.18,35.53,158.18s-11.85,113.27-35.53,157.6c-23.69,44.33-56.15,78.51-97.39,102.54-41.24,24.04-88.47,36.06-141.69,36.06ZM3864.96,734.94c37.62,0,71.68-8.85,102.2-26.56,30.51-17.7,54.75-43.74,72.73-78.12,17.97-34.37,26.96-76.5,26.96-126.39s-8.99-92.47-26.96-126.97c-17.97-34.5-42.22-60.61-72.73-78.31-30.51-17.7-64.58-26.56-102.2-26.56s-71.76,8.86-102.4,26.56c-30.66,17.71-55.04,43.81-73.15,78.31-18.12,34.5-27.17,76.83-27.17,126.97s9.05,92.02,27.17,126.39c18.11,34.38,42.49,60.42,73.15,78.12,30.65,17.71,64.79,26.56,102.4,26.56Z"/>
      <path fill="#ffffff" d="M4225.67,792.32V214.65h210.66c48.76,0,88.68,8.14,119.75,24.42,31.07,16.28,54.13,38.25,69.18,65.91,15.05,27.66,22.57,58.54,22.57,92.66s-7.46,64.75-22.36,92.66c-14.91,27.91-37.9,50.08-68.96,66.49-31.07,16.42-70.85,24.62-119.33,24.62h-150.47v-62.03h147.96c33.44,0,60.33-5.29,80.67-15.9,20.34-10.59,35.11-25.13,44.31-43.62,9.2-18.48,13.79-39.22,13.79-62.23s-4.6-44-13.79-62.23c-9.2-18.22-24.03-32.57-44.51-43.03-20.48-10.47-47.58-15.7-81.3-15.7h-132.92v515.63h-75.24Z"/>
      <path fill="#ffffff" d="M4728.92,214.65h90.28l211.5,479.19h7.52l211.5-479.19h93.21v577.67h-73.98v-438.87h-5.85l-196.03,438.87h-67.71l-193.52-438.87h-5.85v438.87h-71.06V214.65Z"/>
      <path fill="#ffffff" d="M5453.27,792.32V214.65h376.18v62.03h-300.94v193.07h280.88v62.03h-280.88v198.5h305.12v62.03h-380.36Z"/>
      <path fill="#ffffff" d="M6419.63,214.65v577.67h-74.4l-338.56-453.6h-6.69v453.6h-75.24V214.65h72.73l341.07,454.38h5.85V214.65h75.24Z"/>
      <path fill="#ffffff" d="M6495.7,276.68v-62.03h467.3v62.03h-195.61v515.63h-75.24V276.68h-196.45Z"/>
    </g>
  </g>
</svg>