<?xml version="1.0" encoding="UTF-8"?>
<svg id="Layer_2" data-name="Layer 2" xmlns="http://www.w3.org/2000/svg" viewBox="0 0 831.5 177.62">
  <defs>
    <style>
      .cls-1 {
        fill: #fff;
      }
    </style>
  </defs>
  <g id="svg2">
    <g id="g8">
      <g id="g10">
        <path id="path48" class="cls-1" d="M712.12,122.54c-3.31,4.27-8.54,6.33-15.01,6.33s-11.7-2.07-15.42-6.61c-3.72-4.27-5.51-10.46-5.51-18.31s1.93-14.32,5.51-18.72c3.72-4.41,8.81-6.61,15.28-6.61s11.29,2.07,14.87,6.33c3.58,4.27,5.51,10.46,5.51,18.59s-1.79,14.73-5.23,19M697.94,63.89c-12.53,0-22.58,3.72-29.6,11.02-7.02,7.3-10.6,17.35-10.6,30.01,0,11.84,3.58,21.48,10.46,28.5,6.88,6.88,16.25,10.46,27.95,10.46s22.03-3.72,29.05-11.15c7.16-7.43,10.6-17.35,10.6-29.6s-3.3-21.75-10.05-28.78c-6.47-7.02-15.97-10.46-27.81-10.46M630.2,97.21c-5.64-2.34-9.22-4.13-10.88-5.65-1.38-1.38-2.07-3.3-2.07-5.78,0-2.07.83-4.13,2.89-5.51,2.07-1.38,4.41-2.07,7.85-2.07,3.03,0,6.2.55,9.23,1.38,3.03.83,5.78,2.07,7.99,3.72l.69.55v-16.8l-.41-.14c-2.07-.83-4.82-1.65-8.12-2.34-3.3-.55-6.33-.83-8.81-.83-8.54,0-15.56,2.07-21.07,6.61-5.51,4.27-8.12,10.05-8.12,16.8,0,3.58.55,6.75,1.79,9.36,1.24,2.62,3.03,5.09,5.51,7.16,2.48,1.93,6.06,4.13,11.01,6.2,4.13,1.79,7.3,3.17,9.23,4.27s3.17,2.34,4.13,3.31c.69,1.1,1.1,2.48,1.1,4.27,0,5.09-3.85,7.57-11.7,7.57-3.03,0-6.2-.55-9.91-1.79-3.72-1.24-7.16-3.03-10.05-5.09l-.69-.55v17.49l.41.14c2.62,1.24,5.78,2.07,9.64,3.03,3.86.69,7.3,1.24,10.33,1.24,9.23,0,16.8-2.07,22.17-6.61,5.51-4.41,8.4-10.05,8.4-17.35,0-5.09-1.38-9.64-4.41-13.08-3.99-3.3-8.95-6.75-16.11-9.5M566.72,122.54c-3.3,4.27-8.54,6.33-15.01,6.33s-11.7-2.07-15.42-6.61c-3.72-4.27-5.51-10.46-5.51-18.31s1.93-14.32,5.51-18.72c3.72-4.41,8.81-6.61,15.28-6.61s11.29,2.07,14.87,6.33c3.58,4.27,5.51,10.46,5.51,18.59-.28,8.26-1.79,14.73-5.23,19M552.4,63.89c-12.53,0-22.58,3.72-29.6,11.02-7.16,7.3-10.6,17.35-10.6,30.01,0,11.84,3.58,21.48,10.46,28.5,6.88,6.88,16.25,10.46,27.95,10.46s22.03-3.72,29.05-11.15c7.16-7.43,10.6-17.35,10.6-29.6s-3.3-21.75-10.05-28.78c-6.47-7.02-15.97-10.46-27.81-10.46M503.66,64.3c-4.41,0-8.54,1.38-12.12,4.27-3.03,2.48-5.09,6.06-6.88,10.33h-.14v-13.36h-17.9v76.28h17.9v-38.97c0-6.61,1.38-12.12,4.41-16.11,3.03-4.13,6.88-6.2,11.57-6.2,1.65,0,3.3.41,5.37.69,1.93.55,3.31,1.1,4.27,1.79l.69.55v-17.9l-.41-.14c-1.24-.83-3.72-1.24-6.75-1.24M444.59,64.85c-3.3-.69-6.75-1.1-10.05-1.1-8.12,0-15.56,1.79-21.75,5.37s-11.15,8.54-14.32,14.73c-3.3,6.33-4.96,13.63-4.96,22.03,0,7.3,1.65,13.77,4.82,19.69,3.17,5.78,7.57,10.47,13.49,13.63,5.65,3.17,12.25,4.82,19.69,4.82,8.54,0,15.83-1.79,21.62-5.09l.14-.14v-16.52l-.69.55c-2.62,1.93-5.65,3.58-8.67,4.54-3.17,1.1-6.06,1.65-8.54,1.65-7.16,0-12.8-2.07-16.8-6.61-4.13-4.41-6.2-10.46-6.2-18.04s2.07-14.05,6.33-18.59c4.27-4.54,9.91-6.89,16.8-6.89,5.78,0,11.7,1.93,17.07,5.78l.69.55v-17.49l-.14-.14c-2.34-.96-4.96-2.07-8.54-2.75M372.31,33.32c-3.03,0-5.51,1.1-7.57,3.03s-3.17,4.41-3.17,7.43,1.1,5.37,3.17,7.3c2.07,1.93,4.54,2.89,7.57,2.89s5.65-1.1,7.57-2.89c2.07-1.93,3.17-4.41,3.17-7.3s-1.1-5.37-3.17-7.43c-1.79-1.93-4.41-3.03-7.57-3.03M363.22,65.54h17.9v76.28h-17.9v-76.28ZM293.55,102.3l-4.96,14.05h-.41c-.83-3.17-2.34-7.99-4.82-13.77l-26.57-66.78h-26.02v106.43h17.21v-65.68c0-4.13,0-8.81-.14-14.59-.14-2.89-.41-5.09-.55-6.75h.41c.83,4.13,1.79,7.16,2.48,9.09l31.94,77.66h12.12l31.67-78.34c.69-1.79,1.38-5.37,2.07-8.4h.41c-.41,7.85-.69,14.87-.83,19.14v67.47h18.31V35.52h-25.06l-27.26,66.78"/>
        <path id="path50" class="cls-1" d="M831.5,80.27v-14.73h-18.04v-22.58l-.55.14-17.07,5.09-.41.14v17.21h-26.99v-9.64c0-4.41,1.1-7.85,3.03-10.05,1.93-2.2,4.82-3.3,8.4-3.3,2.48,0,5.09.55,7.99,1.79l.69.41v-15.56l-.41-.14c-2.48-.83-5.78-1.38-10.05-1.38-5.37,0-10.05,1.24-14.32,3.31-4.27,2.34-7.43,5.51-9.78,9.78-2.34,4.13-3.58,8.81-3.58,14.18v10.6h-12.53v14.6h12.53v61.68h18.04v-61.55h26.99v39.24c0,16.11,7.57,24.23,22.72,24.23,2.48,0,5.09-.41,7.57-.83,2.62-.55,4.54-1.24,5.65-1.79l.14-.14v-14.73l-.69.55c-1.1.69-2.07,1.24-3.72,1.65-1.38.41-2.62.55-3.58.55-3.58,0-6.06-.83-7.85-2.89-1.65-1.93-2.48-5.09-2.48-9.78v-36.07h18.31"/>
        <path id="path52" class="cls-1" d="M0,0h84.4v84.4H0V0"/>
        <path id="path54" class="cls-1" d="M93.21,0h84.4v84.4h-84.4V0"/>
        <path id="path56" class="cls-1" d="M0,93.21h84.4v84.4H0v-84.4"/>
        <path id="path58" class="cls-1" d="M93.21,93.21h84.4v84.4h-84.4v-84.4"/>
      </g>
    </g>
  </g>
</svg>