<?xml version="1.0" encoding="UTF-8" standalone="no"?>
<!-- Created with Inkscape (http://www.inkscape.org/) -->

<svg
   version="1.1"
   id="svg2"
   width="831.49335"
   height="558.62665"
   viewBox="0 0 831.49335 558.62665"
   sodipodi:docname="microsoft-vector-logo.eps"
   xmlns:inkscape="http://www.inkscape.org/namespaces/inkscape"
   xmlns:sodipodi="http://sodipodi.sourceforge.net/DTD/sodipodi-0.dtd"
   xmlns="http://www.w3.org/2000/svg"
   xmlns:svg="http://www.w3.org/2000/svg">
  <defs
     id="defs6" />
  <sodipodi:namedview
     id="namedview4"
     pagecolor="#ffffff"
     bordercolor="#000000"
     borderopacity="0.25"
     inkscape:showpageshadow="2"
     inkscape:pageopacity="0.0"
     inkscape:pagecheckerboard="0"
     inkscape:deskcolor="#d1d1d1" />
  <g
     id="g8"
     inkscape:groupmode="layer"
     inkscape:label="ink_ext_XXXXXX"
     transform="matrix(1.3333333,0,0,-1.3333333,0,558.62667)">
    <g
       id="g10"
       transform="scale(0.1)">
      <path
         d="m 5340.91,3270.61 c -24.79,-32.02 -64.03,-47.51 -112.56,-47.51 -49.57,0 -87.78,15.49 -115.66,49.57 -27.88,32.01 -41.31,78.48 -41.31,137.35 0,60.92 14.46,107.39 41.31,140.43 27.88,33.05 66.09,49.57 114.62,49.57 46.47,0 84.68,-15.49 111.53,-47.5 26.85,-32.01 41.31,-78.48 41.31,-139.41 0,-61.96 -13.43,-110.49 -39.24,-142.5 m -106.37,439.91 c -93.97,0 -169.35,-27.88 -222.02,-82.62 -52.66,-54.73 -79.51,-130.11 -79.51,-225.11 0,-88.81 26.85,-161.1 78.48,-213.77 51.63,-51.63 121.85,-78.48 209.63,-78.48 91.9,0 165.22,27.88 217.89,83.65 53.7,55.76 79.51,130.11 79.51,222.02 0,90.87 -24.78,163.16 -75.38,215.83 -48.54,52.66 -119.79,78.48 -208.6,78.48 m -508.07,-249.91 c -42.33,17.56 -69.18,30.98 -81.58,42.34 -10.32,10.33 -15.49,24.78 -15.49,43.37 0,15.49 6.2,30.98 21.69,41.31 15.49,10.33 33.05,15.49 58.86,15.49 22.72,0 46.47,-4.13 69.19,-10.33 22.72,-6.19 43.37,-15.49 59.89,-27.88 l 5.17,-4.13 v 125.99 l -3.1,1.03 c -15.49,6.19 -36.14,12.39 -60.93,17.55 -24.78,4.13 -47.5,6.2 -66.09,6.2 -64.02,0 -116.69,-15.49 -157.99,-49.57 -41.31,-32.01 -60.93,-75.38 -60.93,-125.98 0,-26.85 4.13,-50.6 13.42,-70.22 9.3,-19.62 22.72,-38.21 41.31,-53.7 18.59,-14.46 45.44,-30.98 82.61,-46.47 30.98,-13.43 54.73,-23.75 69.19,-32.01 14.46,-8.26 23.75,-17.56 30.98,-24.79 5.16,-8.26 8.26,-18.58 8.26,-32.01 0,-38.21 -28.91,-56.8 -87.77,-56.8 -22.72,0 -46.47,4.14 -74.36,13.43 -27.88,9.29 -53.69,22.72 -75.38,38.21 l -5.16,4.13 v -131.15 l 3.1,-1.03 c 19.62,-9.3 43.37,-15.49 72.28,-22.72 28.92,-5.16 54.73,-9.29 77.45,-9.29 69.19,0 125.99,15.49 166.26,49.56 41.31,33.05 62.99,75.39 62.99,130.12 0,38.2 -10.33,72.28 -33.04,98.1 -29.95,24.78 -67.13,50.6 -120.83,71.25 m -476.05,-190 c -24.78,-32.02 -64.03,-47.51 -112.56,-47.51 -48.54,0 -87.78,15.49 -115.66,49.57 -27.88,32.01 -41.3,78.48 -41.3,137.35 0,60.92 14.45,107.39 41.3,140.43 27.88,33.05 66.09,49.57 114.63,49.57 47.5,0 84.68,-15.49 111.52,-47.5 26.85,-32.01 41.31,-78.48 41.31,-139.41 -2.07,-61.96 -13.42,-110.49 -39.24,-142.5 m -107.4,439.91 c -93.97,0 -169.35,-27.88 -222.02,-82.62 -53.7,-54.73 -79.51,-130.11 -79.51,-225.11 0,-88.81 26.85,-161.1 78.48,-213.77 51.63,-51.63 121.85,-78.48 209.63,-78.48 91.9,0 165.22,27.88 217.89,83.65 53.7,55.76 79.51,130.11 79.51,222.02 0,90.87 -24.78,163.16 -75.38,215.83 -48.53,52.66 -119.79,78.48 -208.6,78.48 m -365.56,-3.1 c -33.04,0 -64.02,-10.33 -90.87,-32.01 -22.72,-18.59 -38.21,-45.44 -51.63,-77.45 h -1.04 v 100.17 h -134.24 v -572.1 h 134.24 v 292.24 c 0,49.57 10.33,90.88 33.05,120.83 22.72,30.97 51.63,46.47 86.74,46.47 12.39,0 24.78,-3.1 40.27,-5.17 14.46,-4.13 24.79,-8.26 32.02,-13.42 l 5.16,-4.13 v 134.24 l -3.1,1.04 c -9.29,6.19 -27.88,9.29 -50.6,9.29 m -443.01,-4.13 c -24.78,5.16 -50.6,8.26 -75.38,8.26 -60.93,0 -116.69,-13.42 -163.16,-40.27 -46.47,-26.85 -83.65,-64.03 -107.4,-110.5 -24.78,-47.5 -37.17,-102.23 -37.17,-165.23 0,-54.73 12.39,-103.26 36.14,-147.66 23.75,-43.37 56.8,-78.49 101.2,-102.24 42.34,-23.75 91.91,-36.14 147.67,-36.14 64.02,0 118.75,13.42 162.13,38.21 l 1.03,1.03 v 123.92 l -5.16,-4.13 c -19.62,-14.46 -42.34,-26.85 -65.06,-34.08 -23.75,-8.26 -45.44,-12.39 -64.03,-12.39 -53.69,0 -96.03,15.49 -125.98,49.57 -30.98,33.04 -46.47,78.48 -46.47,135.27 0,58.87 15.49,105.34 47.5,139.41 32.01,34.08 74.35,51.64 125.99,51.64 43.37,0 87.77,-14.46 128.05,-43.37 l 5.16,-4.14 v 131.15 l -1.03,1.04 c -17.56,7.22 -37.18,15.49 -64.03,20.65 m -542.14,236.48 c -22.72,0 -41.31,-8.26 -56.8,-22.72 -15.49,-14.46 -23.75,-33.05 -23.75,-55.76 0,-21.69 8.26,-40.28 23.75,-54.74 15.49,-14.45 34.08,-21.68 56.8,-21.68 22.72,0 42.34,8.26 56.79,21.68 15.49,14.46 23.75,33.05 23.75,54.74 0,21.68 -8.26,40.27 -23.75,55.76 -13.42,14.46 -33.04,22.72 -56.79,22.72 m -68.16,-241.64 h 134.25 v -572.1 h -134.25 z m -522.52,-275.72 -37.18,-105.34 h -3.1 c -6.19,23.75 -17.55,59.9 -36.14,103.27 l -199.3,500.84 h -195.18 v -798.25 h 129.09 v 492.58 c 0,30.98 0,66.09 -1.04,109.46 -1.03,21.69 -3.09,38.21 -4.13,50.6 h 3.1 c 6.2,-30.98 13.43,-53.69 18.59,-68.15 L 2115.92,3125 h 90.87 l 237.51,587.58 c 5.16,13.43 10.33,40.28 15.49,62.99 h 3.1 c -3.1,-58.86 -5.16,-111.52 -6.2,-143.53 v -506.01 h 137.35 v 797.21 h -187.95 l -204.46,-500.83"
         style="fill:#ffffff;fill-opacity:1;fill-rule:nonzero;stroke:none"
         id="path48" />
      <path
         d="m 6236.22,3587.63 v 110.5 h -135.28 v 169.35 l -4.13,-1.03 -128.05,-38.21 -3.1,-1.03 v -129.08 h -202.4 v 72.28 c 0,33.05 8.26,58.86 22.72,75.39 14.46,16.52 36.15,24.78 62.99,24.78 18.59,0 38.21,-4.13 59.9,-13.43 l 5.16,-3.1 v 116.7 l -3.1,1.03 c -18.58,6.2 -43.37,10.33 -75.38,10.33 -40.27,0 -75.38,-9.3 -107.4,-24.79 -32.01,-17.55 -55.76,-41.3 -73.32,-73.32 -17.55,-30.98 -26.84,-66.09 -26.84,-106.36 v -79.51 h -93.98 v -109.47 h 93.98 v -462.63 h 135.27 v 461.6 h 202.4 v -294.31 c 0,-120.82 56.8,-181.74 170.39,-181.74 18.59,0 38.21,3.09 56.8,6.19 19.62,4.13 34.08,9.3 42.34,13.43 l 1.03,1.03 v 110.49 l -5.16,-4.13 c -8.26,-5.16 -15.49,-9.29 -27.89,-12.39 -10.32,-3.1 -19.62,-4.13 -26.84,-4.13 -26.85,0 -45.44,6.2 -58.87,21.68 -12.39,14.46 -18.58,38.21 -18.58,73.32 v 270.56 h 137.34 v 0"
         style="fill:#ffffff;fill-opacity:1;fill-rule:nonzero;stroke:none"
         id="path50" />
      <path
         d="M 0,4189.67 H 633.02 V 3556.65 H 0 v 633.02"
         style="fill:#ffffff;fill-opacity:1;fill-rule:nonzero;stroke:none"
         id="path52" />
      <path
         d="M 699.109,4189.67 H 1332.13 V 3556.65 H 699.109 v 633.02"
         style="fill:#ffffff;fill-opacity:1;fill-rule:nonzero;stroke:none"
         id="path54" />
      <path
         d="M 0,3490.56 H 633.02 V 2857.54 H 0 v 633.02"
         style="fill:#ffffff;fill-opacity:1;fill-rule:nonzero;stroke:none"
         id="path56" />
      <path
         d="M 699.109,3490.56 H 1332.13 V 2857.54 H 699.109 v 633.02"
         style="fill:#ffffff;fill-opacity:1;fill-rule:nonzero;stroke:none"
         id="path58" />
    </g>
  </g>
</svg>
