<?xml version="1.0" encoding="iso-8859-1"?>
<!-- Generator: Adobe Illustrator 27.0.0, SVG Export Plug-In . SVG Version: 6.00 Build 0)  -->

<svg version="1.1" id="Layer_1" xmlns="http://www.w3.org/2000/svg" xmlns:xlink="http://www.w3.org/1999/xlink" x="0px" y="0px"
	 viewBox="0 0 500 500" style="enable-background:new 0 0 500 500;" xml:space="preserve">
<path d="M81.354,262.341l12.794,23.415H70.409l-10.802-20.01H49.373v20.01H27.769v-70.933h39.514
	c16.345,0,26.723,9.072,26.723,25.386C94.005,250.708,89.172,258.229,81.354,262.341z M49.373,233.259v14.045h15.351
	c4.548,0,7.391-2.695,7.391-7.093c0-4.398-2.843-6.951-7.391-6.951H49.373z M162.799,291l-64.672-17.45L115.468,209l32.335,8.725
	l32.336,8.725L162.799,291z M150.575,243.473l-18.051-4.965l-4.832,18.017l18.051,4.967L150.575,243.473z M254.193,265.746
	c0,13.619-8.67,20.01-22.173,20.01h-42.356v-70.933h40.935c13.503,0,22.173,6.951,22.173,19.152c0,7.661-2.843,12.769-8.244,16.316
	C250.639,252.978,254.193,258.371,254.193,265.746z M210.7,231.848v10.498h14.064c3.838,0,6.112-1.702,6.112-5.391
	c0-3.405-2.274-5.107-6.112-5.107H210.7z M210.7,268.733h15.777c3.695,0,5.835-1.986,5.835-5.392c0-3.687-2.132-5.389-5.835-5.389
	H210.7V268.733z M264.853,214.824h21.601v49.931h30.985v21.002h-52.59L264.853,214.824z M396.898,250.292
	c0,7.295-2.167,14.427-6.228,20.492c-4.061,6.066-9.833,10.793-16.585,13.585c-6.753,2.792-14.183,3.522-21.351,2.099
	c-7.169-1.423-13.753-4.936-18.922-10.095c-5.168-5.159-8.688-11.73-10.114-18.886c-1.426-7.155-0.694-14.571,2.103-21.311
	c2.797-6.74,7.534-12.501,13.611-16.553c6.077-4.053,13.222-6.216,20.531-6.216c4.855-0.01,9.664,0.938,14.152,2.787
	c4.487,1.85,8.565,4.566,11.998,7.992c3.433,3.426,6.155,7.495,8.009,11.974c1.854,4.479,2.804,9.279,2.796,14.124V250.292z
	 M375.293,250.292c0-8.797-6.965-15.749-15.351-15.749c-8.386,0-15.352,6.951-15.352,15.749c0,8.797,6.966,15.747,15.352,15.747
	c8.386,0,15.351-6.96,15.351-15.755V250.292z M448.92,249.155l23.311,36.601h-25.734l-12.786-20.861l-13.219,20.861H394.34
	l24.305-35.751l-22.315-35.181h25.726l11.797,19.152l11.371-19.152h25.584L448.92,249.155z"
	style="fill:#ffffff;fill-opacity:1;fill-rule:nonzero;stroke:none"/>
</svg>
