<?xml version="1.0" encoding="UTF-8"?>
<svg id="Layer_1" xmlns="http://www.w3.org/2000/svg" version="1.1" viewBox="0 0 800 148">
  <!-- Generator: Adobe Illustrator 29.0.1, SVG Export Plug-In . SVG Version: 2.1.0 Build 192)  -->
  <defs>
    <style>
      .st0 {
        fill: #fff;
      }
    </style>
  </defs>
  <path class="st0" d="M96.4,96l23,42.1h-42.7l-19.4-36h-18.4v36H0V10.5h71.1c29.4,0,48.1,16.3,48.1,45.7s-8.7,32.4-22.8,39.8ZM38.9,43.7v25.3h27.6c8.2,0,13.3-4.9,13.3-12.8s-5.1-12.5-13.3-12.5h-27.6ZM243,147.6l-116.4-31.4L157.9,0l58.2,15.7,58.2,15.7-31.2,116.2ZM221,62l-32.5-8.9-8.7,32.4,32.5,8.9,8.7-32.4ZM407.5,102.1c0,24.5-15.6,36-39.9,36h-76.2V10.5h73.7c24.3,0,39.9,12.5,39.9,34.5s-5.1,23-14.8,29.4c11,4.8,17.4,14.5,17.4,27.8ZM329.3,41.1v18.9h25.3c6.9,0,11-3.1,11-9.7s-4.1-9.2-11-9.2h-25.3ZM329.3,107.5h28.4c6.7,0,10.5-3.6,10.5-9.7s-3.8-9.7-10.5-9.7h-28.4v19.4ZM426.7,10.5h38.9v89.9h55.8v37.8h-94.7V10.5ZM664.4,74.3c0,13.1-3.9,26-11.2,36.9-7.3,10.9-17.7,19.4-29.9,24.5-12.2,5-25.5,6.3-38.4,3.8-12.9-2.6-24.8-8.9-34.1-18.2-9.3-9.3-15.6-21.1-18.2-34-2.6-12.9-1.2-26.2,3.8-38.4,5-12.1,13.6-22.5,24.5-29.8,10.9-7.3,23.8-11.2,37-11.2,8.7,0,17.4,1.7,25.5,5,8.1,3.3,15.4,8.2,21.6,14.4,6.2,6.2,11.1,13.5,14.4,21.6,3.3,8.1,5,16.7,5,25.4h0ZM625.5,74.3c0-15.8-12.5-28.3-27.6-28.3s-27.6,12.5-27.6,28.3,12.5,28.3,27.6,28.3,27.6-12.5,27.6-28.4h0ZM758,72.3l42,65.9h-46.3l-23-37.5-23.8,37.5h-47.1l43.7-64.3-40.2-63.3h46.3l21.2,34.5,20.5-34.5h46.1l-39.4,61.8Z"/>
</svg>